<?xml version="1.0" encoding="utf-8"?>
<!-- Generator: Adobe Illustrator 15.0.0, SVG Export Plug-In . SVG Version: 6.00 Build 0)  -->
<!DOCTYPE svg PUBLIC "-//W3C//DTD SVG 1.1//EN" "http://www.w3.org/Graphics/SVG/1.1/DTD/svg11.dtd">
<svg version="1.1" id="Layer_1" xmlns="http://www.w3.org/2000/svg" xmlns:xlink="http://www.w3.org/1999/xlink" x="0px" y="0px"
	 width="50px" height="50px" viewBox="0 0 50 50" enable-background="new 0 0 50 50" xml:space="preserve">
<line fill="none" stroke="#DBDBDA" stroke-width="0.7087" stroke-miterlimit="10" x1="0.294" y1="5.638" x2="5.682" y2="0.25"/>
<line fill="none" stroke="#DBDBDA" stroke-width="0.7087" stroke-miterlimit="10" x1="0.536" y1="12.434" x2="12.594" y2="0.375"/>
<line fill="none" stroke="#DBDBDA" stroke-width="0.7087" stroke-miterlimit="10" x1="0.685" y1="20.481" x2="20.692" y2="0.474"/>
<line fill="none" stroke="#DBDBDA" stroke-width="0.7087" stroke-miterlimit="10" x1="0.958" y1="28.223" x2="28.436" y2="0.746"/>
<line fill="none" stroke="#DBDBDA" stroke-width="0.7087" stroke-miterlimit="10" x1="0.958" y1="36.042" x2="36.255" y2="0.746"/>
<line fill="none" stroke="#DBDBDA" stroke-width="0.7087" stroke-miterlimit="10" x1="45.529" y1="0.746" x2="0.958" y2="45.316"/>
<line fill="none" stroke="#DBDBDA" stroke-width="0.7087" stroke-miterlimit="10" x1="49.04" y1="4.853" x2="4.875" y2="49.018"/>
<line fill="none" stroke="#DBDBDA" stroke-width="0.7087" stroke-miterlimit="10" x1="49.32" y1="12.434" x2="12.75" y2="49.004"/>
<line fill="none" stroke="#DBDBDA" stroke-width="0.7087" stroke-miterlimit="10" x1="49.457" y1="20.895" x2="21.098" y2="49.254"/>
<line fill="none" stroke="#DBDBDA" stroke-width="0.7087" stroke-miterlimit="10" x1="49.354" y1="28.292" x2="28.393" y2="49.254"/>
<line fill="none" stroke="#DBDBDA" stroke-width="0.7087" stroke-miterlimit="10" x1="49.542" y1="44.113" x2="44.126" y2="49.527"/>
<line fill="none" stroke="#DBDBDA" stroke-width="0.7087" stroke-miterlimit="10" x1="49.65" y1="36.689" x2="36.811" y2="49.527"/>
<circle fill="none" stroke="#414242" stroke-width="0.7087" stroke-miterlimit="10" cx="25.397" cy="25" r="24.254"/>
<path fill="#414242" d="M25.532,18.699l9.784,10.126L15.48,28.801L25.532,18.699z"/>
</svg>
