<?xml version="1.0" encoding="utf-8"?>
<!-- Generator: Adobe Illustrator 15.0.0, SVG Export Plug-In . SVG Version: 6.00 Build 0)  -->
<!DOCTYPE svg PUBLIC "-//W3C//DTD SVG 1.1//EN" "http://www.w3.org/Graphics/SVG/1.1/DTD/svg11.dtd">
<svg version="1.1" id="레이어_1" xmlns="http://www.w3.org/2000/svg" xmlns:xlink="http://www.w3.org/1999/xlink" x="0px"
	 y="0px" width="336px" height="56px" viewBox="0 0 336 56" enable-background="new 0 0 336 56" xml:space="preserve">
<g>
	<g id="Layer_2">
		<path fill="#FFFFFF" d="M28.667,23.502v-2.719c0-0.409,0.018-0.724,0.056-0.949c0.039-0.223,0.123-0.443,0.259-0.66
			c0.136-0.218,0.352-0.364,0.651-0.45c0.301-0.083,0.7-0.124,1.2-0.124h2.716v-5.444H29.2c-2.516,0-4.324,0.597-5.421,1.788
			c-1.097,1.197-1.647,2.957-1.647,5.282v3.275h-3.257v5.443h3.256v15.788h6.536V28.944h4.347l0.576-5.442H28.667z"/>
		<path fill="#FFFFFF" d="M97.684,19.169c-1.244,0.534-2.486,0.866-3.727,1.002c1.4-0.844,2.352-2.032,2.846-3.566
			c-1.287,0.758-2.652,1.281-4.111,1.563c-1.281-1.363-2.857-2.048-4.729-2.048c-1.793,0-3.314,0.631-4.582,1.892
			c-1.258,1.264-1.891,2.79-1.891,4.577c0,0.483,0.053,0.977,0.159,1.484c-2.644-0.135-5.12-0.799-7.443-1.994
			c-2.315-1.194-4.283-2.789-5.897-4.777c-0.588,1.001-0.883,2.091-0.883,3.265c0,1.111,0.259,2.137,0.781,3.085
			c0.521,0.948,1.219,1.716,2.106,2.304c-1.044-0.039-2.017-0.314-2.929-0.821v0.08c0,1.561,0.492,2.933,1.471,4.118
			c0.986,1.18,2.221,1.926,3.722,2.232c-0.563,0.145-1.134,0.221-1.704,0.221c-0.373,0-0.785-0.033-1.222-0.102
			c0.413,1.301,1.175,2.361,2.284,3.193c1.113,0.84,2.364,1.266,3.768,1.297c-2.352,1.84-5.03,2.764-8.033,2.764
			c-0.576,0-1.098-0.023-1.563-0.086c3.002,1.943,6.316,2.916,9.934,2.916c2.302,0,4.457-0.365,6.476-1.092
			c2.017-0.727,3.741-1.703,5.167-2.926c1.431-1.221,2.662-2.623,3.699-4.213c1.035-1.596,1.807-3.254,2.313-4.979
			c0.509-1.734,0.765-3.463,0.765-5.199c0-0.376-0.009-0.655-0.022-0.845C95.708,21.59,96.791,20.475,97.684,19.169z"/>
		<g>
			<path fill="#FFFFFF" d="M144.435,33.263c-0.339-0.439-0.704-0.865-1.11-1.258c-0.403-0.379-0.807-0.726-1.214-1.052
				c-0.404-0.312-0.774-0.618-1.112-0.903c-0.33-0.298-0.605-0.605-0.817-0.918c-0.204-0.313-0.311-0.637-0.311-0.961
				c0-0.459,0.149-0.889,0.435-1.288c0.29-0.392,0.643-0.778,1.063-1.157c0.416-0.372,0.833-0.776,1.249-1.222
				c0.418-0.445,0.772-1.029,1.063-1.755c0.291-0.727,0.439-1.559,0.439-2.497c0-1.11-0.246-2.178-0.74-3.207
				c-0.499-1.021-1.194-1.82-2.09-2.39h2.561l2.57-1.5h-8.293c-1.174,0-2.36,0.125-3.549,0.383c-1.758,0.39-3.238,1.284-4.439,2.685
				c-1.203,1.399-1.803,2.979-1.803,4.751c0,1.877,0.675,3.434,2.021,4.671c1.344,1.237,2.961,1.856,4.846,1.856
				c0.383,0,0.827-0.033,1.331-0.096c-0.027,0.104-0.071,0.241-0.134,0.411s-0.113,0.308-0.152,0.405
				c-0.034,0.103-0.066,0.227-0.096,0.37c-0.026,0.149-0.041,0.295-0.041,0.447c0,0.833,0.412,1.781,1.217,2.831
				c-0.959,0.027-1.91,0.103-2.84,0.253c-0.94,0.147-1.924,0.37-2.944,0.682c-1.028,0.307-1.943,0.761-2.755,1.35
				c-0.807,0.59-1.412,1.292-1.823,2.097c-0.466,0.933-0.698,1.794-0.698,2.563c0,0.854,0.188,1.608,0.571,2.308
				c0.375,0.687,0.863,1.244,1.462,1.689c0.59,0.435,1.279,0.805,2.056,1.091c0.774,0.303,1.546,0.517,2.313,0.642
				c0.768,0.126,1.523,0.188,2.268,0.188c3.393,0,6.047-0.83,7.971-2.49c1.772-1.542,2.656-3.313,2.656-5.343
				c0-0.73-0.101-1.394-0.314-2.028C145.047,34.249,144.771,33.717,144.435,33.263z M137.122,26.367
				c-0.646,0-1.261-0.165-1.847-0.493c-0.576-0.333-1.076-0.758-1.479-1.282s-0.758-1.119-1.063-1.779
				c-0.299-0.654-0.528-1.313-0.672-1.967c-0.148-0.661-0.217-1.289-0.217-1.88c0-1.216,0.317-2.261,0.963-3.131
				c0.646-0.876,1.557-1.308,2.738-1.308c0.836,0,1.589,0.259,2.267,0.772c0.68,0.521,1.206,1.175,1.591,1.974
				c0.387,0.801,0.682,1.621,0.895,2.479c0.204,0.852,0.309,1.658,0.309,2.423c0,1.264-0.275,2.281-0.822,3.042
				C139.237,25.984,138.344,26.367,137.122,26.367z M142.367,40.609c-0.352,0.605-0.819,1.067-1.418,1.406
				c-0.59,0.339-1.231,0.584-1.902,0.742c-0.678,0.156-1.396,0.226-2.139,0.226c-0.807,0-1.615-0.095-2.408-0.28
				c-0.797-0.189-1.558-0.474-2.292-0.865c-0.726-0.379-1.312-0.92-1.763-1.6c-0.449-0.676-0.674-1.433-0.674-2.296
				c0-0.763,0.17-1.439,0.517-2.032c0.342-0.589,0.775-1.074,1.311-1.419c0.528-0.361,1.146-0.646,1.856-0.885
				c0.707-0.222,1.391-0.38,2.051-0.469c0.659-0.09,1.326-0.128,2.015-0.128c0.417,0,0.729,0.007,0.946,0.034
				c0.076,0.041,0.266,0.183,0.582,0.401c0.308,0.212,0.515,0.362,0.62,0.432c0.108,0.067,0.306,0.22,0.588,0.432
				c0.288,0.216,0.491,0.374,0.61,0.489c0.124,0.101,0.294,0.26,0.523,0.488c0.224,0.204,0.393,0.39,0.5,0.558
				c0.108,0.155,0.242,0.347,0.398,0.568c0.158,0.233,0.266,0.452,0.335,0.662c0.063,0.203,0.124,0.436,0.177,0.683
				c0.059,0.247,0.087,0.499,0.087,0.769C142.891,39.33,142.719,40.021,142.367,40.609z"/>
			<polygon fill="#FFFFFF" points="152.987,18.012 152.987,13.155 150.555,13.155 150.555,18.012 145.699,18.012 145.699,20.445 
				150.555,20.445 150.555,25.303 152.987,25.303 152.987,20.445 157.846,20.445 157.846,18.012 			"/>
		</g>
	</g>
	<path id="youtube-icon" fill="#FFFFFF" d="M238.086,3.852h2.896l1.986,7.447l1.844-7.447h2.926l-3.352,11.077v7.559h-2.877v-7.559
		L238.086,3.852z M247.609,19.061c0,2.421,1.266,3.684,3.745,3.684c2.056,0,3.675-1.374,3.675-3.684v-6.739
		c0-2.152-1.604-3.693-3.675-3.693c-2.251,0-3.745,1.488-3.745,3.693V19.061z M250.239,12.55c0-0.754,0.345-1.312,1.064-1.312
		c0.782,0,1.119,0.54,1.119,1.312v6.392c0,0.748-0.381,1.304-1.068,1.304c-0.707,0-1.115-0.578-1.115-1.304V12.55z M261.938,8.739
		v10.438c-0.313,0.389-1.004,1.029-1.503,1.029c-0.548,0-0.682-0.373-0.682-0.925V8.741h-2.557v11.493
		c0,1.357,0.414,2.454,1.785,2.454c0.774,0,1.848-0.401,2.956-1.714v1.516h2.555V8.739H261.938z M258.178,36.923
		c0.175,0.229,0.262,0.566,0.262,1.008v6.762c0,0.416-0.071,0.715-0.211,0.9c-0.268,0.35-0.847,0.337-1.245,0.136
		c-0.186-0.095-0.378-0.245-0.576-0.46v-8.16c0.163-0.183,0.332-0.314,0.502-0.396C257.336,36.495,257.884,36.536,258.178,36.923z
		 M266.374,36.627c-0.903,0-1.088,0.636-1.088,1.536v1.325h2.149v-1.325C267.436,37.278,267.25,36.627,266.374,36.627z
		 M273.798,46.286c0,3.239-2.624,5.861-5.86,5.861h-30.13c-3.238,0-5.862-2.625-5.862-5.861V31.479c0-3.239,2.626-5.863,5.862-5.863
		h30.13c3.236,0,5.86,2.626,5.86,5.863V46.286L273.798,46.286z M241.823,32.588h2.835V30.01h-8.416v2.578h2.839v15.171h2.742V32.588
		L241.823,32.588z M251.573,34.666h-2.434v9.938c-0.298,0.375-0.959,0.979-1.435,0.979c-0.52,0-0.646-0.353-0.646-0.882V34.666
		h-2.436v10.942c0,2.657,1.801,2.673,3.115,1.924c0.483-0.276,0.951-0.687,1.401-1.218v1.444h2.434V34.666z M260.945,37.782
		c0-1.778-0.594-3.283-2.374-3.283c-0.869,0-1.613,0.554-2.164,1.225V30.01h-2.459v17.749h2.459v-1.007
		c0.677,0.847,1.421,1.171,2.313,1.171c1.618,0,2.227-1.26,2.227-2.878L260.945,37.782L260.945,37.782z M269.941,38.186
		c0-2.367-1.129-3.854-3.463-3.854c-2.198,0-3.699,1.58-3.699,3.854v5.874c0,2.361,1.188,4.052,3.513,4.052
		c2.566,0,3.649-1.523,3.649-4.052v-0.979h-2.506v0.906c0,1.14-0.061,1.832-1.086,1.832c-0.981,0-1.063-0.85-1.063-1.832V41.52
		h4.655V38.186L269.941,38.186z"/>
	<path id="instagram-icon" fill="#FFFFFF" d="M205.581,22.314h13.49v20.704c0,5.041-4.09,9.129-9.133,9.129h-27.903
		c-5.043,0-9.131-4.088-9.131-9.129V22.314h13.426c-1.374,1.929-2.187,4.292-2.187,6.84c0,6.525,5.289,11.813,11.814,11.813
		c6.522,0,11.812-5.288,11.812-11.813C207.768,26.606,206.959,24.244,205.581,22.314z M219.071,14.87v5.998h-14.698
		c-2.143-2.174-5.122-3.525-8.417-3.525c-3.296,0-6.272,1.351-8.417,3.525h-14.635V14.87c0-3.075,1.522-5.794,3.857-7.451v9.831
		h1.87V6.398c0.427-0.171,0.864-0.309,1.319-0.415v11.269h1.872V5.747c0.07-0.003,0.141-0.006,0.212-0.006h1.081v11.512h1.87V5.741
		h24.951C214.981,5.741,219.071,9.829,219.071,14.87z M214.895,11.024c0-0.809-0.656-1.465-1.464-1.465h-4.937
		c-0.811,0-1.465,0.656-1.465,1.465v5.046c0,0.808,0.652,1.463,1.465,1.463h4.937c0.808,0,1.464-0.656,1.464-1.463V11.024
		L214.895,11.024z M186.855,29.153c0-2.723,1.204-5.17,3.109-6.84c0.668-0.584,1.422-1.075,2.237-1.446
		c1.147-0.521,2.417-0.813,3.754-0.813c1.341,0,2.61,0.293,3.755,0.813c0.818,0.371,1.57,0.862,2.239,1.446
		c1.903,1.67,3.107,4.117,3.107,6.84c0,5.02-4.085,9.1-9.102,9.1C190.938,38.253,186.855,34.174,186.855,29.153z M189.262,29.153
		c0,3.715,3.011,6.728,6.725,6.728c3.717,0,6.726-3.013,6.726-6.728c0-3.714-3.009-6.725-6.726-6.725
		C192.272,22.428,189.262,25.439,189.262,29.153z"/>
	<path fill="#FFFFFF" d="M284.456,28.001c0.119-6.432,2.391-11.803,6.815-16.109c4.427-4.308,9.709-6.492,15.845-6.551
		c6.61,0.118,12.023,2.376,16.242,6.771c4.221,4.396,6.359,9.692,6.42,15.889c-0.119,6.374-2.393,11.728-6.815,16.065
		c-4.429,4.338-9.709,6.535-15.845,6.594c-2.127,0-4.249-0.324-6.375-0.973c0.414-0.648,0.827-1.387,1.239-2.213
		c0.475-1.002,1.063-2.893,1.77-5.666c0.177-0.768,0.443-1.801,0.797-3.096c0.414,0.705,1.121,1.355,2.125,1.947
		c2.655,1.238,5.457,1.121,8.41-0.355c3.068-1.77,5.192-4.514,6.373-8.232c1.063-3.895,0.93-7.51-0.398-10.845
		c-1.329-3.333-3.703-5.74-7.125-7.214c-4.307-1.239-8.499-1.105-12.569,0.398c-4.071,1.505-6.903,4.088-8.499,7.746
		c-0.412,1.357-0.662,2.699-0.752,4.027c-0.087,1.33-0.043,2.626,0.133,3.894c0.177,1.27,0.619,2.406,1.33,3.41
		c0.707,1.003,1.651,1.768,2.832,2.302c0.296,0.116,0.531,0.116,0.709,0c0.232-0.119,0.47-0.59,0.705-1.416
		c0.237-0.826,0.326-1.387,0.268-1.683c-0.061-0.12-0.18-0.326-0.354-0.619c-1.241-2.006-1.654-4.118-1.241-6.331
		c0.414-2.211,1.328-4.086,2.744-5.62c2.185-1.949,4.737-3.008,7.656-3.185c2.921-0.179,5.416,0.618,7.479,2.388
		c1.122,1.297,1.843,2.862,2.169,4.691c0.325,1.83,0.325,3.585,0,5.266c-0.324,1.684-0.899,3.263-1.724,4.737
		c-1.478,2.3-3.218,3.483-5.225,3.54c-1.179-0.059-2.139-0.516-2.877-1.374c-0.736-0.854-0.958-1.843-0.664-2.964
		c0.119-0.65,0.474-1.919,1.064-3.808c0.589-1.887,0.911-3.303,0.974-4.246c-0.179-2.245-1.211-3.395-3.101-3.454
		c-1.475,0.177-2.564,0.842-3.274,1.993c-0.709,1.151-1.093,2.462-1.15,3.938c0.177,1.711,0.441,2.893,0.796,3.542
		c-0.646,2.653-1.151,4.779-1.505,6.373c-0.116,0.414-0.442,1.682-0.974,3.805c-0.528,2.125-0.826,3.75-0.885,4.871v2.479
		c-4.188-1.949-7.494-4.766-9.913-8.453C285.664,36.572,284.456,32.485,284.456,28.001L284.456,28.001z"/>
</g>
</svg>
